<svg width="595" height="738" viewBox="0 0 595 738" fill="none" xmlns="http://www.w3.org/2000/svg">
<line x1="350.299" y1="519.81" x2="401.81" y2="629.701" stroke="black" stroke-width="20" stroke-linecap="round" stroke-linejoin="round"/>
<path d="M274.396 312.054L271.766 305.03L257.718 310.289L260.347 317.313L274.396 312.054ZM316.951 468.529C318.403 472.408 322.725 474.376 326.604 472.924C330.483 471.472 332.451 467.15 330.999 463.271L316.951 468.529ZM260.347 317.313L316.951 468.529L330.999 463.271L274.396 312.054L260.347 317.313Z" fill="black"/>
<line x1="167.395" y1="336.306" x2="361.617" y2="263.605" stroke="black" stroke-width="15" stroke-linecap="round" stroke-linejoin="round"/>
<path d="M422.321 244.395C427.266 253.152 431.608 262.301 435.301 271.752C430.407 273.373 427.912 278.935 429.719 284.309C441.847 320.386 444.209 360.551 434.14 399.573C424.07 438.595 403.149 470.346 376.059 492.248C372.023 495.511 371.466 501.774 374.76 506.353C367.235 511.751 359.315 516.469 351.08 520.461C348.716 515.335 343.031 512.785 338.249 514.758C305.229 528.378 267.673 529.97 230.79 516.64C193.906 503.31 163.509 477.16 142.553 444.032C139.518 439.234 133.599 437.59 129.219 440.28C124.274 431.523 119.932 422.374 116.239 412.922C121.133 411.302 123.628 405.739 121.821 400.365C109.693 364.289 107.331 324.123 117.4 285.102C127.47 246.08 148.391 214.329 175.481 192.426C179.517 189.164 180.074 182.9 176.78 178.321C184.305 172.924 192.225 168.206 200.46 164.213C202.823 169.34 208.509 171.89 213.291 169.917C246.311 156.296 283.867 154.705 320.75 168.034C357.634 181.364 388.031 207.515 408.987 240.643C412.022 245.441 417.941 247.084 422.321 244.395Z" stroke="black" stroke-width="20" stroke-linecap="round" stroke-linejoin="round" stroke-dasharray="270 55"/>
<path fill-rule="evenodd" clip-rule="evenodd" d="M221.587 523.281C135.222 487.115 83.7005 384.711 105.34 287.178C128.103 184.583 223.197 126.228 317.739 156.838C345.258 165.748 369.697 181.214 389.956 201.194L367.879 207.062C351.91 193.465 333.547 182.894 313.404 176.372C230.337 149.477 144.954 200.504 124.358 293.335C105.881 376.615 146.483 462.26 215.009 498.421L221.587 523.281Z" fill="black"/>
</svg>
